<?xml version="1.0" encoding="UTF-8" standalone="no"?><!-- Generator: Gravit.io --><svg xmlns="http://www.w3.org/2000/svg" xmlns:xlink="http://www.w3.org/1999/xlink" style="isolation:isolate" viewBox="0 0 512 512" width="512pt" height="512pt"><defs><clipPath id="_clipPath_H53LPshlFZx7DcJv7YJDhONEVXeHBMcs"><rect width="512" height="512"/></clipPath></defs><g clip-path="url(#_clipPath_H53LPshlFZx7DcJv7YJDhONEVXeHBMcs)"><clipPath id="_clipPath_nICt9nP1VXxVnDSAqbEelA5WYhr8uSAb"><rect x="0" y="0" width="512" height="512" transform="matrix(1,0,0,1,0,0)" fill="rgb(255,255,255)"/></clipPath><g clip-path="url(#_clipPath_nICt9nP1VXxVnDSAqbEelA5WYhr8uSAb)"><g><g><g><path d=" M 452 0 L 60 0 C 26.916 0 0 26.916 0 60 L 0 452 C 0 485.084 26.916 512 60 512 L 452 512 C 485.084 512 512 485.084 512 452 L 512 60 C 512 26.916 485.084 0 452 0 Z  M 472 452 C 472 463.028 463.028 472 452 472 L 338 472 L 338 309 L 399.79 309 L 410 247 L 338 247 L 338 204 C 338 187.025 351.025 174 368 174 L 409 174 L 409 112 L 368 112 C 317.077 112 276.022 153.25 276.022 204.174 L 276.022 247 L 216 247 L 216 309 L 276.022 309 L 276.022 472 L 60 472 C 48.972 472 40 463.028 40 452 L 40 60 C 40 48.972 48.972 40 60 40 L 452 40 C 463.028 40 472 48.972 472 60 L 472 452 L 472 452 L 472 452 Z " fill="rgb(255,213,90)"/></g></g></g></g></g></svg>